<svg width="1280" height="320" xmlns="http://www.w3.org/2000/svg" xmlns:xlink="http://www.w3.org/1999/xlink" overflow="hidden"><defs><style>.cls-1,.cls-5,.cls-6{fill:none;}.cls-2{clip-path:url(#clip-path);}.cls-3{fill:#fff;fill-opacity:0;}.cls-4{fill:#8faadc;stroke:#8faadc;}.cls-4,.cls-5,.cls-6{stroke-miterlimit:8;stroke-width:8px;}.cls-5{stroke:#4472c4;}.cls-6{stroke:#00b0f0;}.cls-7{isolation:isolate;}</style><clipPath id="clip-path"><rect class="cls-1" width="1280" height="320"/></clipPath></defs><title>SynGuar-icon-fixed</title><g class="cls-2"><rect class="cls-3" width="1280" height="320"/><path class="cls-4" d="M36.49,110.88A9.62,9.62,0,1,1,50,113.48,9.73,9.73,0,0,1,36.49,110.88Z"/><path class="cls-4" d="M66.38,60.56a9.62,9.62,0,1,1,13.52,2.6A9.73,9.73,0,0,1,66.38,60.56Z"/><path class="cls-4" d="M124.13,50a9.62,9.62,0,1,1,13.52,2.6A9.73,9.73,0,0,1,124.13,50Z"/><path class="cls-4" d="M50.36,167.13a9.62,9.62,0,1,1,13.52,2.6A9.74,9.74,0,0,1,50.36,167.13Z"/><path class="cls-4" d="M87.83,138.34a9.62,9.62,0,1,1,13.53,2.6A9.74,9.74,0,0,1,87.83,138.34Z"/><path class="cls-4" d="M130.8,107a9.62,9.62,0,1,1,13.52,2.6A9.74,9.74,0,0,1,130.8,107Z"/><path class="cls-4" d="M170.76,83.38A9.62,9.62,0,1,1,184.28,86,9.73,9.73,0,0,1,170.76,83.38Z"/><path class="cls-4" d="M99.37,193.19a9.62,9.62,0,1,1,13.52,2.6A9.75,9.75,0,0,1,99.37,193.19Z"/><path class="cls-4" d="M144.74,174.72a9.62,9.62,0,1,1,13.52,2.6A9.74,9.74,0,0,1,144.74,174.72Z"/><path class="cls-4" d="M176,141.37A9.62,9.62,0,1,1,189.48,144,9.74,9.74,0,0,1,176,141.37Z"/><path class="cls-4" d="M194.1,291.68a9.61,9.61,0,1,1,13.52,2.59A9.73,9.73,0,0,1,194.1,291.68Z"/><path class="cls-4" d="M237,261.84a9.62,9.62,0,1,1,13.52,2.6A9.73,9.73,0,0,1,237,261.84Z"/><path class="cls-5" d="M54,107.22,90.1,124.76"/><path class="cls-5" d="M72.67,64.67,90.1,124.76"/><path class="cls-5" d="M83.84,56.9l49.23,36.51"/><path class="cls-5" d="M130.42,54.14l2.65,39.27"/><path class="cls-5" d="M141.59,46.38,173,69.8"/><path class="cls-5" d="M66.15,156.15l21.68-17.81"/><path class="cls-5" d="M178.22,127.79l-33.9-18.2"/><path class="cls-5" d="M147,161.14l-2.67-51.55"/><path class="cls-5" d="M147,161.14l-45.64-20.2"/><path class="cls-5" d="M101.63,179.6l-.28-38.66"/><path class="cls-5" d="M97.7,185.86,63.88,169.73"/><path class="cls-6" d="M42.78,115l9.85,38.56"/><path class="cls-6" d="M46,95.78,66.38,60.56"/><path class="cls-6" d="M82.17,49.58l40.29-6.88"/><path class="cls-6" d="M103.62,127.36,130.8,107"/><path class="cls-6" d="M146.59,96l24.17-12.63"/><path class="cls-6" d="M185.45,126.27,184.28,86"/><path class="cls-6" d="M115.15,182.21l29.59-7.49"/><path class="cls-6" d="M160.52,163.74,176,141.37"/><path class="cls-5" d="M112.89,195.79l83.47,82.31"/><path class="cls-5" d="M158.26,177.32l38.1,100.77"/><path class="cls-5" d="M158.26,177.32l81,70.94"/><path class="cls-5" d="M189.48,144l49.78,104.3"/><path class="cls-5" d="M209.88,280.7,237,261.84"/><g class="cls-7"><path d="M295.64,165.39l9.56-.83a21.16,21.16,0,0,0,3.16,9.43,17.2,17.2,0,0,0,7.71,5.95,29.08,29.08,0,0,0,11.75,2.27,28.14,28.14,0,0,0,10.24-1.72,14.14,14.14,0,0,0,6.61-4.73,10.91,10.91,0,0,0,2.17-6.55,10,10,0,0,0-2.09-6.3,15.48,15.48,0,0,0-6.9-4.52,135.61,135.61,0,0,0-13.63-3.73q-10.56-2.53-14.79-4.78a20.81,20.81,0,0,1-8.18-7.14,17.47,17.47,0,0,1-2.69-9.53,19.42,19.42,0,0,1,3.3-10.84,20.39,20.39,0,0,1,9.61-7.66,36.48,36.48,0,0,1,14-2.61,38.52,38.52,0,0,1,15,2.74,21.62,21.62,0,0,1,10,8.08A23.15,23.15,0,0,1,354.31,135l-9.72.74q-.78-7.26-5.3-11T325.94,121q-9.19,0-13.4,3.37a10.1,10.1,0,0,0-4.21,8.12,8.73,8.73,0,0,0,3,6.79q2.93,2.67,15.28,5.46t17,4.89a23.14,23.14,0,0,1,9.87,7.81,19,19,0,0,1,3.19,10.89,20.84,20.84,0,0,1-3.5,11.52,23,23,0,0,1-10.06,8.41,35.08,35.08,0,0,1-14.76,3q-10.4,0-17.42-3a24.41,24.41,0,0,1-11-9.12A25.91,25.91,0,0,1,295.64,165.39Z"/><path d="M368.84,211.37l-1-8.83a20.9,20.9,0,0,0,5.38.84,10.32,10.32,0,0,0,5-1,8.55,8.55,0,0,0,3.08-2.93,45.9,45.9,0,0,0,2.87-7c.18-.52.46-1.29.84-2.3l-21.06-55.59h10.14l11.55,32.14q2.24,6.1,4,12.85a125.08,125.08,0,0,1,3.87-12.64l11.86-32.35h9.4l-21.11,56.43a110.73,110.73,0,0,1-5.27,12.59,18.69,18.69,0,0,1-5.75,6.82,13.62,13.62,0,0,1-7.73,2.17A18.92,18.92,0,0,1,368.84,211.37Z"/><path d="M422.75,190V134.51h8.47v7.89q6.11-9.14,17.66-9.14a23.22,23.22,0,0,1,9.22,1.8,14.48,14.48,0,0,1,6.29,4.73,18.11,18.11,0,0,1,2.93,7,53.72,53.72,0,0,1,.52,9.14V190h-9.4V156.25a25.41,25.41,0,0,0-1.1-8.6,9.06,9.06,0,0,0-3.89-4.54,12.42,12.42,0,0,0-6.56-1.7,15.26,15.26,0,0,0-10.37,3.81q-4.36,3.83-4.36,14.48V190Z"/><path d="M519.3,160v-9l32.45-.05v28.42a57.28,57.28,0,0,1-15.41,9,45.81,45.81,0,0,1-16.3,3,43.41,43.41,0,0,1-20.51-4.84,31.91,31.91,0,0,1-13.92-14,44,44,0,0,1-4.71-20.43,47.37,47.37,0,0,1,4.68-20.87A31.16,31.16,0,0,1,499,116.8a42.21,42.21,0,0,1,20.22-4.7,40.1,40.1,0,0,1,15,2.69,24.88,24.88,0,0,1,10.53,7.5,33.18,33.18,0,0,1,5.8,12.54l-9.14,2.51a28.29,28.29,0,0,0-4.29-9.2,17.49,17.49,0,0,0-7.31-5.35,26.86,26.86,0,0,0-10.56-2,31.06,31.06,0,0,0-12,2.12,22.5,22.5,0,0,0-8.18,5.56,26.65,26.65,0,0,0-4.83,7.58,40.09,40.09,0,0,0-2.93,15.41q0,10.25,3.53,17.14a22.53,22.53,0,0,0,10.27,10.24,31.74,31.74,0,0,0,14.31,3.34,34,34,0,0,0,12.85-2.53,33.1,33.1,0,0,0,9.51-5.41V160Z"/><path d="M601.85,190v-8.15q-6.48,9.41-17.6,9.4a22.33,22.33,0,0,1-9.17-1.88,15.11,15.11,0,0,1-6.33-4.73,17.63,17.63,0,0,1-2.89-7,47.06,47.06,0,0,1-.58-8.78V134.51h9.41v30.78a55.15,55.15,0,0,0,.57,9.92A9.81,9.81,0,0,0,579,181a11.69,11.69,0,0,0,7.11,2.12,15.55,15.55,0,0,0,7.94-2.17,12.11,12.11,0,0,0,5.25-5.91q1.54-3.74,1.54-10.84V134.51h9.4V190Z"/><path d="M661.2,183.16a35,35,0,0,1-10.05,6.27,29.29,29.29,0,0,1-10.37,1.82q-9.15,0-14.06-4.46a14.77,14.77,0,0,1-4.91-11.42,15.1,15.1,0,0,1,1.86-7.44,15.29,15.29,0,0,1,4.85-5.41,22.72,22.72,0,0,1,6.77-3.08,66.3,66.3,0,0,1,8.36-1.41q11.39-1.36,16.77-3.24c0-1.29.05-2.11.05-2.46q0-5.75-2.66-8.1c-2.4-2.12-6-3.19-10.71-3.19q-6.65,0-9.8,2.33t-4.67,8.23l-9.2-1.25a22.78,22.78,0,0,1,4.13-9.54,18.06,18.06,0,0,1,8.31-5.59,36.91,36.91,0,0,1,12.59-2A33.43,33.43,0,0,1,660,134.93a15.24,15.24,0,0,1,6.53,4.21,14.74,14.74,0,0,1,2.93,6.4,53.3,53.3,0,0,1,.47,8.67v12.54q0,13.11.6,16.59a20.7,20.7,0,0,0,2.38,6.66h-9.83A20.07,20.07,0,0,1,661.2,183.16Zm-.78-21q-5.11,2.1-15.36,3.56a34.87,34.87,0,0,0-8.2,1.88,8.14,8.14,0,0,0-3.71,3,8.31,8.31,0,0,0,1.54,10.74q2.85,2.51,8.33,2.51a19.36,19.36,0,0,0,9.67-2.38,14.66,14.66,0,0,0,6.22-6.5c1-2.13,1.51-5.26,1.51-9.41Z"/><path d="M684.4,190V134.51h8.47v8.42q3.23-5.91,6-7.79a10.47,10.47,0,0,1,6-1.88,18.37,18.37,0,0,1,9.67,3L711.31,145a13.46,13.46,0,0,0-6.9-2,9,9,0,0,0-5.54,1.85,10.15,10.15,0,0,0-3.5,5.15,36.77,36.77,0,0,0-1.56,11V190Z"/></g></g></svg>