<svg width="780" height="320" xmlns="http://www.w3.org/2000/svg" xmlns:xlink="http://www.w3.org/1999/xlink" overflow="hidden"><defs><clipPath id="clip0"><rect x="0" y="0" width="780" height="320"/></clipPath></defs><g clip-path="url(#clip0)"><rect x="0" y="0" width="780" height="320" fill="#FFFFFF" fill-opacity="0"/><path d="M36.4913 110.878C33.3833 106.41 34.3977 100.329 38.7571 97.2969 43.1165 94.2644 49.1699 95.428 52.2779 99.8959 55.3859 104.364 54.3715 110.444 50.0121 113.477 45.6528 116.509 39.5993 115.345 36.4913 110.878Z" stroke="#8FAADC" stroke-width="8" stroke-miterlimit="8" fill="#8FAADC" fill-rule="evenodd"/><path d="M66.3823 60.5578C63.2743 56.0899 64.2888 50.0096 68.6481 46.9771 73.0075 43.9446 79.061 45.1082 82.169 49.5761 85.2769 54.044 84.2625 60.1242 79.9032 63.1567 75.5438 66.1892 69.4903 65.0256 66.3823 60.5578Z" stroke="#8FAADC" stroke-width="8" stroke-miterlimit="8" fill="#8FAADC" fill-rule="evenodd"/><path d="M124.132 50.0323C121.024 45.5644 122.039 39.4842 126.398 36.4517 130.758 33.4192 136.811 34.5828 139.919 39.0506 143.027 43.5185 142.013 49.5988 137.653 52.6313 133.294 55.6638 127.24 54.5002 124.132 50.0323Z" stroke="#8FAADC" stroke-width="8" stroke-miterlimit="8" fill="#8FAADC" fill-rule="evenodd"/><path d="M50.3635 167.131C47.2555 162.663 48.27 156.583 52.6293 153.55 56.9887 150.518 63.0422 151.681 66.1502 156.149 69.2582 160.617 68.2437 166.697 63.8844 169.73 59.525 172.762 53.4715 171.599 50.3635 167.131Z" stroke="#8FAADC" stroke-width="8" stroke-miterlimit="8" fill="#8FAADC" fill-rule="evenodd"/><path d="M87.8338 138.337C84.7258 133.869 85.7402 127.789 90.0996 124.756 94.4589 121.724 100.512 122.888 103.62 127.355 106.728 131.823 105.714 137.904 101.355 140.936 96.9952 143.969 90.9418 142.805 87.8338 138.337Z" stroke="#8FAADC" stroke-width="8" stroke-miterlimit="8" fill="#8FAADC" fill-rule="evenodd"/><path d="M130.804 106.991C127.696 102.523 128.711 96.4424 133.07 93.4099 137.429 90.3774 143.483 91.541 146.591 96.0089 149.699 100.477 148.684 106.557 144.325 109.589 139.966 112.622 133.912 111.458 130.804 106.991Z" stroke="#8FAADC" stroke-width="8" stroke-miterlimit="8" fill="#8FAADC" fill-rule="evenodd"/><path d="M170.757 83.3816C167.649 78.9137 168.663 72.8334 173.023 69.8009 177.382 66.7684 183.436 67.9321 186.544 72.3999 189.652 76.8678 188.637 82.9481 184.278 85.9806 179.918 89.0131 173.865 87.8495 170.757 83.3816Z" stroke="#8FAADC" stroke-width="8" stroke-miterlimit="8" fill="#8FAADC" fill-rule="evenodd"/><path d="M99.368 193.186C96.26 188.718 97.2744 182.638 101.634 179.605 105.993 176.573 112.047 177.737 115.155 182.204 118.263 186.672 117.248 192.753 112.889 195.785 108.529 198.818 102.476 197.654 99.368 193.186Z" stroke="#8FAADC" stroke-width="8" stroke-miterlimit="8" fill="#8FAADC" fill-rule="evenodd"/><path d="M144.735 174.724C141.627 170.256 142.641 164.175 147 161.143 151.36 158.11 157.413 159.274 160.521 163.742 163.629 168.21 162.615 174.29 158.255 177.323 153.896 180.355 147.843 179.191 144.735 174.724Z" stroke="#8FAADC" stroke-width="8" stroke-miterlimit="8" fill="#8FAADC" fill-rule="evenodd"/><path d="M175.954 141.366C172.846 136.898 173.86 130.818 178.219 127.785 182.579 124.753 188.632 125.916 191.74 130.384 194.848 134.852 193.834 140.932 189.475 143.965 185.115 146.997 179.062 145.834 175.954 141.366Z" stroke="#8FAADC" stroke-width="8" stroke-miterlimit="8" fill="#8FAADC" fill-rule="evenodd"/><path d="M194.095 291.676C190.987 287.208 192.002 281.128 196.361 278.096 200.721 275.063 206.774 276.227 209.882 280.695 212.99 285.163 211.976 291.243 207.616 294.275 203.257 297.308 197.203 296.144 194.095 291.676Z" stroke="#8FAADC" stroke-width="8" stroke-miterlimit="8" fill="#8FAADC" fill-rule="evenodd"/><path d="M236.991 261.837C233.883 257.369 234.897 251.289 239.257 248.256 243.616 245.224 249.67 246.387 252.778 250.855 255.886 255.323 254.871 261.403 250.512 264.436 246.152 267.468 240.099 266.305 236.991 261.837Z" stroke="#8FAADC" stroke-width="8" stroke-miterlimit="8" fill="#8FAADC" fill-rule="evenodd"/><path d="M53.9453 107.225 90.0996 124.756" stroke="#4472C4" stroke-width="8" stroke-miterlimit="8" fill="none" fill-rule="evenodd"/><path d="M0 0 20.0072 59.2771" stroke="#4472C4" stroke-width="8" stroke-miterlimit="8" fill="none" fill-rule="evenodd" transform="matrix(-0.820914 0.571052 0.571052 0.820914 72.6735 64.6699)"/><path d="M83.8363 56.9047 133.07 93.4099" stroke="#4472C4" stroke-width="8" stroke-miterlimit="8" fill="none" fill-rule="evenodd"/><path d="M0 0 20.2501 33.7449" stroke="#4472C4" stroke-width="8" stroke-miterlimit="8" fill="none" fill-rule="evenodd" transform="matrix(-0.820914 0.571052 0.571052 0.820914 130.424 54.1445)"/><path d="M141.586 46.3793 173.023 69.8009" stroke="#4472C4" stroke-width="8" stroke-miterlimit="8" fill="none" fill-rule="evenodd"/><path d="M0 0 27.9719 2.23969" stroke="#4472C4" stroke-width="8" stroke-miterlimit="8" fill="none" fill-rule="evenodd" transform="matrix(0.820914 -0.571052 -0.571052 -0.820914 66.1503 156.149)"/><path d="M178.22 127.785 144.325 109.59" stroke="#4472C4" stroke-width="8" stroke-miterlimit="8" fill="none" fill-rule="evenodd"/><path d="M0 0 27.2433 43.8487" stroke="#4472C4" stroke-width="8" stroke-miterlimit="8" fill="none" fill-rule="evenodd" transform="matrix(0.820914 -0.571052 -0.571052 -0.820914 147.001 161.143)"/><path d="M147.001 161.143 101.355 140.936" stroke="#4472C4" stroke-width="8" stroke-miterlimit="8" fill="none" fill-rule="evenodd"/><path d="M0 0 21.8529 31.9037" stroke="#4472C4" stroke-width="8" stroke-miterlimit="8" fill="none" fill-rule="evenodd" transform="matrix(0.820914 -0.571052 -0.571052 -0.820914 101.634 179.605)"/><path d="M97.7008 185.858 63.8844 169.73" stroke="#4472C4" stroke-width="8" stroke-miterlimit="8" fill="none" fill-rule="evenodd"/><path d="M0 0 13.9365 37.2779" stroke="#00B0F0" stroke-width="8" stroke-miterlimit="8" fill="none" fill-rule="evenodd" transform="matrix(-0.820914 0.571052 0.571052 0.820914 42.7824 114.99)"/><path d="M0 0 36.8589 17.2706" stroke="#00B0F0" stroke-width="8" stroke-miterlimit="8" fill="none" fill-rule="evenodd" transform="matrix(0.820914 -0.571052 -0.571052 -0.820914 45.9867 95.7838)"/><path d="M82.1689 49.5763 122.465 42.7038" stroke="#00B0F0" stroke-width="8" stroke-miterlimit="8" fill="none" fill-rule="evenodd"/><path d="M0 0 33.945 1.19444" stroke="#00B0F0" stroke-width="8" stroke-miterlimit="8" fill="none" fill-rule="evenodd" transform="matrix(0.820914 -0.571052 -0.571052 -0.820914 103.62 127.356)"/><path d="M146.591 96.009 170.757 83.3816" stroke="#00B0F0" stroke-width="8" stroke-miterlimit="8" fill="none" fill-rule="evenodd"/><path d="M0 0 22.047 33.7449" stroke="#00B0F0" stroke-width="8" stroke-miterlimit="8" fill="none" fill-rule="evenodd" transform="matrix(0.820914 -0.571052 -0.571052 -0.820914 185.449 126.272)"/><path d="M115.155 182.205 144.735 174.724" stroke="#00B0F0" stroke-width="8" stroke-miterlimit="8" fill="none" fill-rule="evenodd"/><path d="M0 0 25.4465 9.55612" stroke="#00B0F0" stroke-width="8" stroke-miterlimit="8" fill="none" fill-rule="evenodd" transform="matrix(0.820914 -0.571052 -0.571052 -0.820914 160.521 163.742)"/><path d="M112.889 195.785 196.361 278.096" stroke="#4472C4" stroke-width="8" stroke-miterlimit="8" fill="none" fill-rule="evenodd"/><path d="M0 0 26.2652 104.486" stroke="#4472C4" stroke-width="8" stroke-miterlimit="8" fill="none" fill-rule="evenodd" transform="matrix(-0.820914 0.571052 0.571052 0.820914 158.256 177.322)"/><path d="M158.256 177.322 239.257 248.256" stroke="#4472C4" stroke-width="8" stroke-miterlimit="8" fill="none" fill-rule="evenodd"/><path d="M0 0 18.6889 114.043" stroke="#4472C4" stroke-width="8" stroke-miterlimit="8" fill="none" fill-rule="evenodd" transform="matrix(-0.820914 0.571052 0.571052 0.820914 189.475 143.965)"/><path d="M209.882 280.695 236.991 261.837" stroke="#4472C4" stroke-width="8" stroke-miterlimit="8" fill="none" fill-rule="evenodd"/><text font-family="Century Gothic,Century Gothic_MSFontService,sans-serif" font-weight="400" font-size="107" transform="translate(290.832 190)">SynGuar </text></g></svg>